<svg width="18" height="18" viewBox="0 0 18 18" fill="none" xmlns="http://www.w3.org/2000/svg">
<g id="Group">
<path id="Vector" d="M11.6922 1.24988C11.6922 0.170884 10.5462 -0.400116 9.82117 0.315884L5.77958 4.30888C5.65622 4.43106 5.49683 4.49866 5.33161 4.49888H2.02224C1.48545 4.49888 0.970654 4.73594 0.591091 5.15789C0.211528 5.57985 -0.00170898 6.15215 -0.00170898 6.74888V11.2459C-0.00170898 11.8426 0.211528 12.4149 0.591091 12.8369C0.970654 13.2588 1.48545 13.4959 2.02224 13.4959H5.33251C5.49772 13.4961 5.65712 13.5637 5.78048 13.6859L9.82028 17.6799C10.5453 18.3959 11.6922 17.8239 11.6922 16.7459V1.24988ZM6.67731 5.42988L10.3429 1.80688V16.1889L6.67731 12.5649C6.30687 12.1985 5.82834 11.996 5.33251 11.9959H2.02224C1.84331 11.9959 1.67171 11.9169 1.54519 11.7762C1.41867 11.6356 1.34759 11.4448 1.34759 11.2459V6.74988C1.34759 6.55097 1.41867 6.36021 1.54519 6.21955C1.67171 6.0789 1.84331 5.99988 2.02224 5.99988H5.33251C5.82834 5.99974 6.30687 5.79727 6.67731 5.43088V5.42988Z" fill="#B3B3B3"/>
<path id="Vector_2" d="M15.2832 2.89678C15.3545 2.83821 15.4354 2.79581 15.5214 2.772C15.6073 2.74819 15.6967 2.74344 15.7843 2.75802C15.8719 2.7726 15.9561 2.80622 16.032 2.85697C16.108 2.90771 16.1742 2.97459 16.2269 3.05378C17.3739 4.77367 17.9919 6.85873 17.989 8.99978C17.9915 11.1409 17.3733 13.226 16.226 14.9458C16.1173 15.0985 15.9594 15.1983 15.7857 15.2239C15.6121 15.2496 15.4363 15.1991 15.2955 15.0833C15.1546 14.9674 15.0599 14.7952 15.0313 14.6031C15.0026 14.4109 15.0424 14.2139 15.142 14.0538C16.1173 12.5921 16.6425 10.8197 16.6397 8.99978C16.6425 7.17987 16.1173 5.40747 15.142 3.94578C15.0893 3.86659 15.0512 3.77664 15.0298 3.68107C15.0084 3.5855 15.0041 3.48617 15.0172 3.38876C15.0303 3.29135 15.0606 3.19777 15.1062 3.11335C15.1519 3.02894 15.212 2.95535 15.2832 2.89678Z" fill="#B3B3B3"/>
<path id="Vector_3" d="M13.6198 5.36978C13.6977 5.32281 13.7832 5.29336 13.8713 5.28312C13.9595 5.27287 14.0486 5.28204 14.1335 5.31008C14.2185 5.33813 14.2976 5.3845 14.3665 5.44657C14.4353 5.50863 14.4924 5.58515 14.5347 5.67178C15.0168 6.66178 15.2903 7.79678 15.2903 8.99978C15.2918 10.1618 15.032 11.3058 14.5347 12.3278C14.4495 12.5028 14.3053 12.6331 14.1337 12.6899C13.9621 12.7467 13.7773 12.7255 13.6198 12.6308C13.4624 12.5361 13.3452 12.3758 13.2941 12.185C13.243 11.9943 13.2621 11.7888 13.3473 11.6138C13.7251 10.8368 13.941 9.94778 13.941 8.99978C13.941 8.05178 13.7251 7.16278 13.3473 6.38578C13.3051 6.29911 13.2786 6.20405 13.2695 6.10603C13.2603 6.008 13.2686 5.90893 13.294 5.81448C13.3193 5.72003 13.3611 5.63205 13.417 5.55557C13.4729 5.4791 13.5418 5.41562 13.6198 5.36878V5.36978Z" fill="#B3B3B3"/>
</g>
</svg>
