<svg width="19" height="18" viewBox="0 0 19 18" fill="none" xmlns="http://www.w3.org/2000/svg">
<path d="M11.8179 1.24988C11.8179 0.170884 10.6719 -0.400116 9.94691 0.315884L5.90531 4.30888C5.78195 4.43106 5.62256 4.49866 5.45735 4.49888H2.14797C1.61119 4.49888 1.09639 4.73594 0.716823 5.15789C0.33726 5.57985 0.124023 6.15215 0.124023 6.74888V11.2459C0.124023 11.8426 0.33726 12.4149 0.716823 12.8369C1.09639 13.2588 1.61119 13.4959 2.14797 13.4959H5.45824C5.62346 13.4961 5.78285 13.5637 5.90621 13.6859L9.94601 17.6799C10.671 18.3959 11.8179 17.8239 11.8179 16.7459V1.24988ZM6.80304 5.42988L10.4686 1.80688V16.1889L6.80304 12.5649C6.43261 12.1985 5.95407 11.996 5.45824 11.9959H2.14797C1.96904 11.9959 1.79744 11.9169 1.67092 11.7762C1.5444 11.6356 1.47332 11.4448 1.47332 11.2459V6.74988C1.47332 6.55097 1.5444 6.36021 1.67092 6.21955C1.79744 6.0789 1.96904 5.99988 2.14797 5.99988H5.45824C5.95407 5.99974 6.43261 5.79727 6.80304 5.43088V5.42988Z" fill="black"/>
<path d="M15.409 2.89678C15.4802 2.83821 15.5611 2.79581 15.6471 2.772C15.7331 2.74819 15.8224 2.74344 15.91 2.75802C15.9977 2.7726 16.0818 2.80622 16.1578 2.85697C16.2337 2.90771 16.2999 2.97459 16.3526 3.05378C17.4996 4.77367 18.1176 6.85873 18.1148 8.99978C18.1173 11.1409 17.499 13.226 16.3517 14.9458C16.243 15.0985 16.0851 15.1983 15.9115 15.2239C15.7378 15.2496 15.562 15.1991 15.4212 15.0833C15.2804 14.9674 15.1856 14.7952 15.157 14.6031C15.1284 14.4109 15.1681 14.2139 15.2677 14.0538C16.243 12.5921 16.7683 10.8197 16.7655 8.99978C16.7683 7.17987 16.243 5.40747 15.2677 3.94578C15.2151 3.86659 15.1769 3.77664 15.1555 3.68107C15.1341 3.5855 15.1298 3.48617 15.1429 3.38876C15.156 3.29135 15.1863 3.19777 15.2319 3.11335C15.2776 3.02894 15.3377 2.95535 15.409 2.89678Z" fill="black"/>
<path d="M13.7456 5.36978C13.8235 5.32281 13.9089 5.29336 13.9971 5.28312C14.0852 5.27287 14.1743 5.28204 14.2593 5.31008C14.3442 5.33813 14.4234 5.3845 14.4922 5.44657C14.561 5.50863 14.6182 5.58515 14.6604 5.67178C15.1425 6.66178 15.416 7.79678 15.416 8.99978C15.4175 10.1618 15.1578 11.3058 14.6604 12.3278C14.5752 12.5028 14.431 12.6331 14.2594 12.6899C14.0879 12.7467 13.903 12.7255 13.7456 12.6308C13.5881 12.5361 13.4709 12.3758 13.4198 12.185C13.3687 11.9943 13.3878 11.7888 13.473 11.6138C13.8508 10.8368 14.0667 9.94778 14.0667 8.99978C14.0667 8.05178 13.8508 7.16278 13.473 6.38578C13.4308 6.29911 13.4044 6.20405 13.3952 6.10603C13.3861 6.008 13.3944 5.90893 13.4197 5.81448C13.445 5.72003 13.4868 5.63205 13.5427 5.55557C13.5986 5.4791 13.6676 5.41562 13.7456 5.36878V5.36978Z" fill="black"/>
</svg>
